<mxfile host="Electron" agent="Mozilla/5.0 (Windows NT 10.0; Win64; x64) AppleWebKit/537.36 (KHTML, like Gecko) draw.io/25.0.2 Chrome/128.0.6613.186 Electron/32.2.5 Safari/537.36" version="25.0.2">
  <diagram name="Page-1" id="QbVM-qhq_BF2LXNoguQ5">
    <mxGraphModel dx="1182" dy="683" grid="1" gridSize="10" guides="1" tooltips="1" connect="1" arrows="1" fold="1" page="1" pageScale="1" pageWidth="850" pageHeight="1100" math="0" shadow="0">
      <root>
        <mxCell id="0" />
        <mxCell id="1" parent="0" />
        <mxCell id="mEob46jThGOG9od_VYb--264" value="" style="rounded=1;whiteSpace=wrap;html=1;fillColor=#CFCFCF;fontFamily=CMU Sans Serif;" vertex="1" parent="1">
          <mxGeometry x="506" y="270" width="120" height="120" as="geometry" />
        </mxCell>
        <mxCell id="mEob46jThGOG9od_VYb--265" value="&lt;font style=&quot;font-size: 50px;&quot;&gt;&lt;b style=&quot;font-size: 50px;&quot;&gt;M&lt;/b&gt;&lt;/font&gt;" style="text;strokeColor=none;align=center;fillColor=none;html=1;verticalAlign=middle;whiteSpace=wrap;rounded=0;strokeWidth=2;fontSize=50;fontColor=#595656;fontFamily=CMU Sans Serif;" vertex="1" parent="1">
          <mxGeometry x="533.5" y="275" width="65" height="60" as="geometry" />
        </mxCell>
        <mxCell id="mEob46jThGOG9od_VYb--266" value="&lt;b style=&quot;font-size: 15px;&quot;&gt;Learner&lt;/b&gt;&lt;b style=&quot;background-color: initial;&quot;&gt;&amp;nbsp;1&lt;/b&gt;" style="text;html=1;align=center;verticalAlign=middle;resizable=0;points=[];autosize=1;strokeColor=none;fillColor=none;fontSize=15;fontFamily=CMU Sans Serif;" vertex="1" parent="1">
          <mxGeometry x="475" y="549.4" width="90" height="30" as="geometry" />
        </mxCell>
        <mxCell id="mEob46jThGOG9od_VYb--267" value="&lt;span style=&quot;font-size: 25px;&quot;&gt;&lt;b style=&quot;font-size: 25px;&quot;&gt;...&lt;/b&gt;&lt;/span&gt;" style="text;html=1;align=center;verticalAlign=middle;resizable=0;points=[];autosize=1;strokeColor=none;fillColor=none;fontSize=25;rotation=90;fontFamily=CMU Sans Serif;" vertex="1" parent="1">
          <mxGeometry x="547" y="440" width="50" height="40" as="geometry" />
        </mxCell>
        <mxCell id="mEob46jThGOG9od_VYb--268" value="&lt;b style=&quot;font-size: 15px;&quot;&gt;Aggregator&lt;/b&gt;" style="text;html=1;align=center;verticalAlign=middle;resizable=0;points=[];autosize=1;strokeColor=none;fillColor=none;fontSize=15;fontFamily=CMU Sans Serif;" vertex="1" parent="1">
          <mxGeometry x="516" y="240" width="100" height="30" as="geometry" />
        </mxCell>
        <mxCell id="mEob46jThGOG9od_VYb--270" value="&lt;b style=&quot;font-size: 15px;&quot;&gt;Learner&lt;/b&gt;&lt;b style=&quot;background-color: initial;&quot;&gt;&amp;nbsp;N&lt;/b&gt;" style="text;html=1;align=center;verticalAlign=middle;resizable=0;points=[];autosize=1;strokeColor=none;fillColor=none;fontSize=15;fontFamily=CMU Sans Serif;" vertex="1" parent="1">
          <mxGeometry x="572" y="549.4" width="90" height="30" as="geometry" />
        </mxCell>
        <mxCell id="mEob46jThGOG9od_VYb--271" value="D" style="group;fontStyle=4;fontFamily=CMU Sans Serif;fontColor=#ff3333;" vertex="1" connectable="0" parent="1">
          <mxGeometry x="482" y="419.7" width="76" height="129.7" as="geometry" />
        </mxCell>
        <mxCell id="mEob46jThGOG9od_VYb--272" value="&lt;font style=&quot;font-size: 50px;&quot;&gt;&lt;b style=&quot;&quot;&gt;&lt;font color=&quot;#ff3333&quot;&gt;M&lt;/font&gt;&lt;/b&gt;&lt;/font&gt;&lt;div&gt;&lt;font style=&quot;font-size: 50px;&quot;&gt;&lt;b style=&quot;&quot;&gt;&lt;font color=&quot;#ff3333&quot;&gt;D&lt;/font&gt;&lt;/b&gt;&lt;/font&gt;&lt;/div&gt;" style="rounded=1;whiteSpace=wrap;html=1;fillColor=#CFCFCF;align=center;fontFamily=CMU Sans Serif;" vertex="1" parent="mEob46jThGOG9od_VYb--271">
          <mxGeometry width="72.96000000000001" height="129.7" as="geometry" />
        </mxCell>
        <mxCell id="mEob46jThGOG9od_VYb--273" value="D" style="group;fontStyle=4;fontFamily=CMU Sans Serif;" vertex="1" connectable="0" parent="1">
          <mxGeometry x="579" y="419.7" width="76" height="129.7" as="geometry" />
        </mxCell>
        <mxCell id="mEob46jThGOG9od_VYb--274" value="&lt;b style=&quot;color: rgb(0, 102, 204); font-size: 50px;&quot;&gt;M&lt;/b&gt;&lt;div&gt;&lt;b style=&quot;color: rgb(0, 102, 204); font-size: 50px;&quot;&gt;D&lt;/b&gt;&lt;font style=&quot;font-size: 50px;&quot;&gt;&lt;b style=&quot;&quot;&gt;&lt;br&gt;&lt;/b&gt;&lt;/font&gt;&lt;/div&gt;" style="rounded=1;whiteSpace=wrap;html=1;fillColor=#CFCFCF;align=center;fontFamily=CMU Sans Serif;" vertex="1" parent="mEob46jThGOG9od_VYb--273">
          <mxGeometry width="72.96000000000001" height="129.7" as="geometry" />
        </mxCell>
      </root>
    </mxGraphModel>
  </diagram>
</mxfile>
